<?xml version="1.0" encoding="iso-8859-1"?>
<!-- Uploaded to: SVG Repo, www.svgrepo.com, Generator: SVG Repo Mixer Tools -->
<!DOCTYPE svg PUBLIC "-//W3C//DTD SVG 1.1//EN" "http://www.w3.org/Graphics/SVG/1.1/DTD/svg11.dtd">
<svg fill="#000000" version="1.1" id="Capa_1" xmlns="http://www.w3.org/2000/svg" xmlns:xlink="http://www.w3.org/1999/xlink" 
	 width="800px" height="800px" viewBox="0 0 27.416 27.416"
	 xml:space="preserve">
<g>
	<path d="M7.92,14.371l4.887,4.944l-8.004,3.021L7.92,14.371z M27.332,5.538v20.336c0,0.829-0.672,1.5-1.5,1.5H1.5
		c-0.828,0-1.5-0.671-1.5-1.5V1.542c0-0.829,0.672-1.5,1.5-1.5h24.332c0.828,0,1.5,0.671,1.5,1.5v3.831l0.084,0.085L27.332,5.538z
		 M24.332,8.39L13.684,18.513l-2.102-2.131l12.75-12.121V3.042h-0.251L10.84,15.63l-2.104-2.127L19.74,3.042H3v21.332h21.332V8.39z"
		/>
</g>
</svg>