<svg preserveAspectRatio="xMidYMid meet" data-bbox="3.3 3.9 373.5 116.7" viewBox="3.3 3.9 373.5 116.7" xmlns="http://www.w3.org/2000/svg" data-type="color" role="presentation" aria-hidden="true" aria-label="">
    <g>
        <path d="m76.4 119.9-4.8-20.8h-.1l-4.8 20.8h-7.4l-8.3-32h8.3l4.3 20.8h.1l4.7-20.8h6.3l4.6 20.9h.1l4.4-20.9h8.3L83.6 120h-7.2z" fill="#2a4390" data-color="1"></path>
        <path d="m150.6 119.9-7.4-10.4h-.1v10.4h-7.8v-32h10.5c3.3 0 5.9.4 7.6 1.2 3.5 1.6 5.9 5.3 5.9 9.9 0 5.1-3 9.2-8 10.1L160 120h-9.4zm-4.4-15.9c3.2 0 5.2-1.5 5.2-4.6 0-2.8-2.1-4.3-5.2-4.3h-3.1v8.9h3.1z" fill="#2a4390" data-color="1"></path>
        <path d="M166.8 119.9v-5.4l11-19.5h-11v-7.2H187v6.6l-10.2 18.2H187v7.2h-20.2z" fill="#2a4390" data-color="1"></path>
        <path d="M196.3 119.9v-32h10.3c2.3 0 4 .1 5.1.4 3.6.8 6.7 3.6 6.7 8 0 2.7-1.3 5.2-3.7 6.5 3.5 1.2 5.3 3.8 5.3 7.5 0 3.1-1.3 5.9-3.7 7.6-2.5 1.8-4.2 2.2-9.2 2.2h-10.8zm11.1-19.9c2 0 3.1-.9 3.1-2.6s-1-2.4-3.1-2.4h-3.3v5h3.3zm1 12.7c2.3 0 3.7-1 3.7-3.1 0-1.9-1.3-2.8-3.7-2.8h-4.2v5.9h4.2z" fill="#2a4390" data-color="1"></path>
        <path d="M245.4 87.9h8.2v19.6c0 3.3-.5 5.8-1.6 7.6-2.1 3.4-5.7 5.5-10.6 5.5-2.7 0-5-.5-6.8-1.6-3.8-2.2-5.6-5.2-5.6-11.4V87.9h8.2v19.5c0 4 1.3 5.9 4.2 5.9 2.8 0 4.1-1.4 4.1-5.9V87.9z" fill="#2a4390" data-color="1"></path>
        <path d="m279.7 119.9-7.4-10.4h-.1v10.4h-7.8v-32h10.5c3.3 0 5.9.4 7.6 1.2 3.5 1.6 5.9 5.3 5.9 9.9 0 5.1-3 9.2-8 10.1l8.7 10.9h-9.4zm-4.5-15.9c3.3 0 5.2-1.5 5.2-4.6 0-2.8-2.1-4.3-5.2-4.3h-3.1v8.9h3.1z" fill="#2a4390" data-color="1"></path>
        <path d="M329.8 103.5c0 8.6-6.3 17.1-17.1 17.1-9.5 0-17-7.4-17-16.8 0-9.7 7.8-16.5 17.2-16.5 7.2 0 14.2 4.9 16 11.4h-9.2c-1.5-2.6-4-4.2-7.1-4.2-5.2 0-8.8 4.2-8.8 9.3 0 5.3 3.4 9.6 8.8 9.6 3.8 0 6.7-1.9 7.7-5.2h-9.6v-6.5h19.1v1.8z" fill="#2a4390" data-color="1"></path>
        <path d="m115.6 31.8-1.7 4.6h-8.8L118 4.5h6.4l12.7 31.9h-8.8l-1.6-4.6h-11.1zm2.2-6.5h6.7l-3.3-10.9h-.1l-3.3 10.9z" fill="#229452" data-color="2"></path>
        <path d="m258.9 31.8-1.7 4.6h-8.8l12.8-31.9h6.4l12.7 31.9h-8.8l-1.6-4.6h-11zm2.3-6.5h6.7l-3.3-10.9h-.1l-3.3 10.9z" fill="#229452" data-color="2"></path>
        <path d="M26.8 4.5h12.8L15.8 41.3l23.9 37H26.1L3.3 41.4 26.8 4.5z" fill="#229452" data-color="2"></path>
        <path d="M353.3 4.5h-12.8l23.8 36.8-23.9 37H354l22.8-36.9-23.5-36.9z" fill="#2a4390" data-color="1"></path>
        <path d="M51.2 4.5h8.2v12h10.4v-12H78v31.9h-8.2V23.7H59.4v12.8h-8.2v-32z" fill="#229452" data-color="2"></path>
        <path d="M84.3 4.5H102v7.2h-9.9v5h9.6v7.2h-9.6v5.5h9.9v7.2H84.3V4.5z" fill="#229452" data-color="2"></path>
        <path d="M141.3 4.5h8.2v24.8h9.5v7.2h-17.6v-32z" fill="#229452" data-color="2"></path>
        <path d="M164.5 11.7h-6.3V4.5h20.7v7.2h-6.3v24.8h-8.2V11.7z" fill="#229452" data-color="2"></path>
        <path d="M182.8 4.5h8.2v12h10.4v-12h8.2v31.9h-8.2V23.7H191v12.8h-8.2v-32z" fill="#229452" data-color="2"></path>
        <path d="M247.6 24.5C245.8 32 239.2 37 231.5 37c-10 0-16.8-8-16.8-16.6 0-8.2 6.3-16.5 16.7-16.5 10 0 15.4 7.7 16.2 12.7h-8.5c-.9-2.4-3.3-5.6-7.7-5.6-5.5 0-8.5 4.8-8.5 9.3 0 4.8 3.3 9.5 8.6 9.5 5.1 0 7.2-4.3 7.7-5.4h8.4z" fill="#229452" data-color="2"></path>
        <path d="M284.1 4.5h10.1c5.6 0 7.8.7 9.8 2.3 2.6 2.1 3.9 5.4 3.9 8.7 0 3.7-1.9 9.1-7.9 10.1l8.7 10.9h-9.3L292 26.1h-.1v10.3h-7.8V4.5zm7.8 16.1h2.9c4.8 0 5.4-3 5.4-4.6 0-2.9-2.1-4.3-5.3-4.3h-3v8.9z" fill="#229452" data-color="2"></path>
        <path d="M312.9 4.5h17.7v7.2h-9.9v5h9.6v7.2h-9.6v5.5h9.9v7.2h-17.7V4.5z" fill="#229452" data-color="2"></path>
        <path d="m92.2 73.7-1.7 4.6h-8.8l12.8-31.9h6.4l12.7 31.9h-8.8l-1.6-4.6h-11zm2.3-6.5h6.7l-3.3-10.9h-.1l-3.3 10.9z" fill="#20201e" data-color="3"></path>
        <path d="m190.8 73.7-1.7 4.6h-8.8l12.8-31.9h6.4l12.7 31.9h-8.8l-1.6-4.6h-11zm2.2-6.5h6.7l-3.3-10.9h-.1L193 67.2z" fill="#20201e" data-color="3"></path>
        <path d="M51.2 46.4h8.2v12h10.4v-12H78v31.9h-8.2V65.5H59.4v12.8h-8.2V46.4z" fill="#20201e" data-color="3"></path>
        <path d="M146.4 66.3c-1.9 7.6-8.4 12.6-16.1 12.6-10 0-16.8-8-16.8-16.6 0-8.2 6.3-16.5 16.7-16.5 10 0 15.4 7.7 16.2 12.7h-8.5c-.9-2.4-3.3-5.6-7.7-5.6-5.5 0-8.5 4.8-8.5 9.3 0 4.8 3.3 9.5 8.6 9.5 5.1 0 7.2-4.3 7.7-5.4h8.4z" fill="#20201e" data-color="3"></path>
        <path d="M151.5 46.4h8.2v14.4h.1l9-14.4h8.5l-10.6 15.9 11.3 16h-9.5l-8.7-13.8h-.1v13.8h-8.2V46.4z" fill="#20201e" data-color="3"></path>
        <path d="M216.6 53.5h-6.3v-7.2H231v7.2h-6.3v24.8h-8.2V53.5z" fill="#20201e" data-color="3"></path>
        <path d="M234.3 46.4h8.2v12h10.4v-12h8.2v31.9h-8.2V65.5h-10.4v12.8h-8.2V46.4z" fill="#20201e" data-color="3"></path>
        <path d="M282.3 45.8c9.8 0 16.9 7.7 16.9 16.6 0 8.9-7 16.6-16.9 16.6-10.1 0-16.8-8-16.8-16.2 0-2.1.3-4.5 1.3-6.8 1.6-4.2 6.6-10.2 15.5-10.2zm.1 25.9c5.8 0 8.6-5.3 8.6-9.4 0-4.1-2.8-9.5-8.7-9.5-5.7 0-8.7 4.8-8.7 9.3 0 5.1 3.4 9.6 8.8 9.6z" fill="#20201e" data-color="3"></path>
        <path d="M303.6 46.4h7l12.4 20 .1-.1-.3-20h7.8v31.9h-7.1l-12.2-19.4h-.1l.2 19.4h-7.8V46.4z" fill="#20201e" data-color="3"></path>
        <path fill="#2a4390" d="M122.7 85.9v6.4h-8.2v-6.4h8.2z" data-color="1"></path>
        <path d="M116.4 95.8v11.6c0 4.5-1.3 5.9-4.1 5.9-2.9 0-4.2-2-4.2-5.9V95.8H100v11.7c0 6.2 1.8 9.2 5.6 11.4 1.9 1.1 4.2 1.6 6.8 1.6 4.9 0 8.4-2 10.6-5.5 1.1-1.7 1.6-4.2 1.6-7.6V95.8h-8.2z" fill="#2a4390" data-color="1"></path>
        <path fill="#2a4390" d="M110.2 85.9v6.4H102v-6.4h8.2z" data-color="1"></path>
    </g>
</svg>