<?xml version="1.0" standalone="no"?>
<!DOCTYPE svg PUBLIC "-//W3C//DTD SVG 20010904//EN"
 "http://www.w3.org/TR/2001/REC-SVG-20010904/DTD/svg10.dtd">
<svg version="1.0" xmlns="http://www.w3.org/2000/svg"
 width="215.000000pt" height="215.000000pt" viewBox="0 0 215.000000 215.000000"
 preserveAspectRatio="xMidYMid meet">
<metadata>
Created by potrace 1.14, written by Peter Selinger 2001-2017
</metadata>
<g transform="translate(0.000000,215.000000) scale(0.100000,-0.100000)"
fill="#000000" stroke="none">
<path d="M0 1075 l0 -1075 371 0 c350 0 371 1 364 17 -4 10 -9 32 -11 48 -4
29 -3 29 5 4 24 -72 16 -69 186 -69 131 0 155 2 155 15 0 12 -16 15 -82 15
-46 0 -99 4 -118 10 -19 5 -48 11 -64 14 -57 10 -109 86 -88 129 10 20 11 19
11 -15 1 -30 8 -42 38 -67 44 -36 141 -61 237 -61 l66 0 0 53 0 54 -93 6
c-163 11 -297 69 -337 146 -11 22 -20 50 -20 61 0 58 86 146 174 179 66 25 85
26 111 8 16 -13 15 -14 -21 -20 -51 -8 -151 -71 -169 -107 -34 -66 -9 -128 66
-166 44 -22 158 -53 197 -54 9 0 12 36 12 145 0 80 -4 145 -8 145 -32 0 -133
-25 -164 -41 -28 -14 -38 -26 -38 -43 0 -33 37 -54 123 -72 85 -18 100 -26 31
-18 -85 10 -126 25 -156 54 -15 16 -28 23 -29 17 0 -7 -5 -1 -10 12 -5 13 -7
26 -4 29 3 3 5 -1 5 -8 0 -7 11 -2 26 13 29 29 94 53 172 63 l52 7 0 112 0
112 -50 6 c-107 13 -177 66 -151 115 14 26 84 60 141 67 51 6 47 3 -32 -20
-71 -21 -105 -54 -89 -84 16 -29 58 -49 125 -59 l56 -9 0 113 c0 110 -1 115
-35 176 -64 117 -56 219 20 255 59 28 108 -6 140 -97 7 -21 11 -41 8 -44 -8
-7 -33 20 -33 36 0 7 -9 28 -20 46 -24 40 -66 44 -98 9 -17 -18 -22 -35 -21
-78 1 -48 2 -50 8 -19 4 19 14 45 21 57 l14 22 23 -25 c27 -29 29 -47 9 -63
-15 -13 -32 -68 -27 -86 2 -5 3 -76 2 -157 -2 -154 3 -173 35 -119 10 17 21
28 26 25 4 -3 8 4 8 15 0 12 5 21 10 21 6 0 10 -8 10 -18 0 -18 45 -72 60 -72
6 0 11 74 12 172 3 165 4 173 23 174 11 1 39 7 62 13 39 11 43 15 44 44 2 30
2 30 6 5 5 -32 12 -34 39 -12 10 8 14 13 7 9 -9 -4 -11 7 -10 39 3 37 11 53
45 90 23 25 42 52 42 61 0 8 5 15 11 15 5 0 7 5 4 10 -3 6 -1 10 5 10 6 0 8 5
5 10 -3 6 -2 10 3 10 10 0 32 97 32 142 0 48 -15 31 -16 -20 -1 -26 -9 -60
-18 -77 -9 -16 -16 -35 -16 -41 0 -12 -50 -61 -55 -54 -2 3 -7 1 -12 -4 -5 -5
-3 -6 5 -2 26 15 10 -13 -25 -44 -38 -34 -107 -70 -133 -69 -8 0 3 8 25 17 54
23 85 44 85 59 0 6 5 15 12 19 7 5 8 3 3 -6 -5 -9 -4 -11 3 -6 7 4 12 14 12
22 0 8 10 34 22 57 32 62 35 203 6 260 -29 58 -60 97 -70 91 -5 -3 -7 0 -6 7
2 7 -1 13 -7 14 -5 0 -37 14 -70 30 -54 27 -70 30 -155 30 -76 0 -104 -5 -142
-22 -46 -21 -61 -14 -28 15 13 11 11 11 -7 2 -13 -6 -22 -14 -22 -18 3 -21 -3
-32 -17 -32 -14 0 -15 3 -3 18 7 9 1 6 -14 -7 -28 -25 -38 -43 -12 -21 19 16
19 3 0 -16 -11 -12 -15 -12 -15 -3 0 9 -6 8 -17 -4 -16 -16 -16 -19 -3 -28 13
-9 12 -10 -2 -5 -20 6 -43 -27 -32 -46 4 -7 3 -8 -4 -4 -16 9 -33 -63 -34
-138 0 -78 33 -155 93 -215 39 -40 40 -42 10 -21 -43 30 -87 100 -108 170 -14
46 -14 66 -4 123 13 82 35 126 92 190 48 55 92 85 163 112 27 11 44 21 38 23
-19 6 -121 -26 -168 -53 -50 -30 -129 -128 -139 -175 -6 -27 -10 -30 -48 -31
-36 -1 -38 -2 -17 -9 23 -7 23 -8 4 -9 -29 -1 -34 -18 -34 -107 0 -135 64
-260 174 -341 66 -49 67 -59 1 -13 -95 65 -164 173 -185 288 -21 116 6 227 82
343 23 35 41 69 39 74 -1 6 1 7 5 3 10 -11 35 12 27 25 -3 5 -1 7 5 3 6 -3 23
5 39 19 17 15 21 23 11 19 -10 -3 -18 -10 -18 -15 0 -5 -5 -9 -12 -9 -6 0 -2
10 10 23 l21 22 -32 0 c-24 0 -31 4 -29 17 1 9 -2 19 -8 23 -6 4 -7 -1 -4 -12
5 -15 3 -15 -13 3 -10 11 -23 17 -28 13 -6 -5 -27 -24 -48 -43 -21 -19 -41
-36 -45 -37 -4 0 -6 -5 -4 -11 1 -5 -1 -7 -6 -4 -5 3 -19 -13 -31 -35 -13 -22
-25 -38 -28 -35 -9 9 55 92 110 142 112 103 272 154 482 154 151 0 200 -7 383
-58 93 -26 127 -39 110 -42 -53 -13 5 -18 93 -9 52 5 103 11 114 12 17 2 20
-5 23 -47 4 -63 -19 -109 -73 -145 -59 -40 -137 -71 -92 -37 16 12 15 14 -8
14 -13 0 -22 -4 -20 -8 3 -5 -4 -6 -15 -3 -15 4 -5 12 41 35 56 28 91 63 119
118 15 29 5 20 -33 -32 -36 -49 -101 -86 -173 -99 -33 -6 -69 -13 -82 -15 -19
-4 -21 -7 -11 -25 6 -11 8 -23 5 -26 -3 -3 -8 2 -12 11 -3 9 -10 16 -16 16 -5
0 -6 -4 -3 -10 3 -5 -2 -10 -13 -10 -10 0 -24 10 -31 23 l-12 22 5 -22 c2 -13
0 -23 -5 -23 -5 0 -9 6 -9 14 0 8 -10 14 -25 14 -27 0 -26 -4 17 -51 16 -18
16 -18 28 0 10 16 11 16 6 1 -4 -12 0 -18 10 -18 10 0 14 6 10 15 -4 10 1 15
14 15 11 0 20 -4 20 -8 0 -5 39 -7 88 -5 48 2 104 0 126 -4 l38 -8 54 -165
c30 -90 54 -173 54 -183 0 -15 -3 -16 -22 -5 -33 18 -202 15 -258 -5 l-45 -16
83 6 c58 4 82 2 82 -6 0 -6 -3 -10 -7 -10 -5 1 -15 1 -23 0 -11 -1 -12 -3 -3
-9 8 -5 -4 -13 -32 -21 -25 -7 -45 -17 -45 -22 0 -5 12 -4 26 1 14 6 31 10 37
9 20 -1 -36 -20 -68 -24 -16 -2 -34 -4 -40 -4 -28 -3 88 -44 134 -47 29 -2 56
-5 58 -8 3 -2 19 12 36 32 18 20 36 42 42 48 7 8 16 0 31 -30 11 -22 46 -89
78 -149 34 -62 55 -114 52 -123 -5 -13 -21 -15 -92 -12 -82 3 -85 4 -81 26 6
32 -11 27 -20 -5 -14 -52 8 -82 60 -83 16 0 26 -4 22 -10 -3 -5 -1 -26 4 -46
7 -25 7 -42 0 -53 -9 -14 -10 -14 -5 1 4 14 -6 13 -70 -10 -41 -15 -74 -30
-74 -34 0 -4 29 -5 64 -1 64 6 65 5 71 -20 10 -38 -1 -47 -54 -47 -31 0 -53
-5 -61 -15 -15 -18 -14 -19 25 -32 33 -10 42 -33 44 -101 1 -64 -12 -82 -60
-82 -22 0 -56 7 -75 15 -20 8 -41 12 -47 8 -6 -3 -7 -1 -3 6 4 7 -2 15 -16 20
-13 6 -16 10 -8 10 8 1 -4 11 -28 22 -33 16 -40 24 -30 31 9 7 6 8 -10 5 -12
-3 -20 -1 -16 4 3 5 0 9 -5 9 -6 0 -10 3 -9 8 1 4 -2 20 -7 35 -6 21 -10 25
-16 15 -7 -10 -9 -9 -9 5 0 9 -5 17 -11 17 -5 0 -7 5 -4 10 3 6 -4 15 -17 20
-20 9 -18 9 10 4 41 -7 41 2 0 21 l-33 14 30 -5 30 -5 -30 18 c-26 15 -27 18
-11 21 18 4 18 5 -5 18 -13 7 -18 13 -11 14 8 0 11 9 8 23 -10 48 -18 122 -12
116 4 -3 12 -37 19 -75 7 -38 15 -64 19 -59 3 6 -5 57 -18 115 -14 58 -22 116
-19 130 4 19 3 21 -5 10 -8 -13 -10 -12 -10 5 0 17 -2 18 -10 5 -8 -11 -9 -8
-6 15 6 42 6 42 16 20 8 -19 9 -19 9 3 1 12 0 22 -1 22 -2 0 -25 -11 -52 -25
-27 -14 -76 -30 -108 -37 l-59 -12 2 -159 1 -159 45 7 c145 22 165 102 34 142
-66 20 -90 36 -41 27 45 -8 119 -40 142 -61 55 -49 -7 -104 -145 -128 l-37 -6
0 -113 0 -113 63 -7 c69 -8 162 -47 177 -77 23 -42 -32 -85 -117 -94 l-48 -5
52 13 c70 19 105 43 101 70 -4 30 -96 75 -170 83 l-58 7 0 -49 c0 -57 9 -94
21 -94 5 0 8 5 7 12 -2 6 12 14 30 18 21 5 32 4 32 -4 0 -6 5 -4 10 4 6 10 10
11 10 3 0 -7 7 -13 15 -13 8 0 15 -5 15 -11 0 -5 -4 -7 -10 -4 -5 3 -10 1 -10
-4 0 -7 -23 -11 -54 -11 -63 0 -84 -17 -29 -23 l38 -4 -35 -1 -35 -2 0 -55 c0
-30 3 -55 8 -55 4 0 7 5 7 10 0 6 8 10 18 10 9 0 13 4 7 8 -5 4 -12 18 -13 32
-2 14 -1 22 3 18 4 -4 14 -1 22 7 8 8 29 15 46 15 18 0 47 4 64 9 41 12 49 1
28 -38 -10 -21 -27 -34 -55 -42 -22 -7 -38 -14 -35 -17 9 -9 93 29 119 53 18
16 26 34 26 57 0 25 3 29 10 18 18 -28 11 -66 -17 -92 -49 -47 -132 -74 -285
-93 l-48 -6 0 -56 0 -56 88 5 c98 6 162 30 218 83 25 24 34 41 34 64 0 19 4
30 10 26 22 -13 10 -61 -22 -92 -56 -54 -141 -86 -240 -91 -66 -3 -88 -8 -88
-18 0 -31 171 -2 262 45 l57 29 -16 -25 c-10 -14 -31 -34 -48 -44 l-30 -19 40
0 c34 0 43 5 58 29 9 16 17 43 17 59 0 34 15 50 23 28 6 -16 -4 -61 -21 -93
-9 -16 -7 -19 19 -21 29 -2 29 -2 23 45 -3 27 -7 60 -9 74 -4 26 -2 25 163
-47 l167 -74 183 0 182 0 0 1075 0 1075 -335 0 -335 0 0 -30 c0 -22 -5 -30
-17 -29 -11 0 -13 3 -5 6 6 2 12 15 12 27 l0 22 -735 2 -735 3 0 -1076z m973
1058 c-7 -2 -19 -2 -25 0 -7 3 -2 5 12 5 14 0 19 -2 13 -5z m320 0 c-7 -2 -19
-2 -25 0 -7 3 -2 5 12 5 14 0 19 -2 13 -5z m-370 -10 c-7 -2 -19 -2 -25 0 -7
3 -2 5 12 5 14 0 19 -2 13 -5z m430 0 c-7 -2 -19 -2 -25 0 -7 3 -2 5 12 5 14
0 19 -2 13 -5z m-643 -27 c14 -2 -36 -3 -110 -3 -78 0 -114 3 -85 6 47 6 140
4 195 -3z m139 10 c-12 -10 -69 -24 -69 -16 0 5 10 11 23 13 31 6 51 8 46 3z
m1234 -13 c-13 -2 -35 -2 -50 0 -16 2 -5 4 22 4 28 0 40 -2 28 -4z m45 -85
c-1 -95 -5 -83 -10 30 -2 34 0 62 5 62 4 0 6 -42 5 -92z m-311 36 c-3 -3 -12
-4 -19 -1 -8 3 -5 6 6 6 11 1 17 -2 13 -5z m-64 -11 c-13 -2 -33 -2 -45 0 -13
2 -3 4 22 4 25 0 35 -2 23 -4z m307 -17 c-7 -7 -13 -7 -20 0 -6 6 -3 10 10 10
13 0 16 -4 10 -10z m-1400 0 c0 -2 -8 -10 -17 -17 -16 -13 -17 -12 -4 4 13 16
21 21 21 13z m61 -69 c12 -22 12 -22 -10 -3 -11 11 -21 23 -21 28 0 14 19 -1
31 -25z m-26 -7 c10 -11 16 -20 13 -20 -3 0 -13 9 -23 20 -10 11 -16 20 -13
20 3 0 13 -9 23 -20z m1171 -75 c-4 -17 -21 -45 -38 -61 -18 -16 -26 -20 -17
-9 28 36 35 52 12 33 -33 -29 -50 -21 -21 10 15 15 35 47 45 72 17 43 18 44
21 16 2 -16 1 -43 -2 -61z m-1286 72 c0 -2 -10 -12 -22 -23 l-23 -19 19 23
c18 21 26 27 26 19z m-406 -25 c-1 -7 -2 -34 -2 -62 -1 -28 -7 -50 -13 -50 -5
0 -8 3 -6 8 3 4 1 30 -3 57 -4 28 -6 54 -3 58 7 12 28 3 27 -11z m-56 -9 c-10
-2 -26 -2 -35 0 -10 3 -2 5 17 5 19 0 27 -2 18 -5z m395 -108 c-3 -9 -8 -14
-10 -11 -3 3 -2 9 2 15 9 16 15 13 8 -4z m1274 -10 c0 -8 -4 -12 -9 -9 -5 3
-6 10 -3 15 9 13 12 11 12 -6z m-587 -26 c98 -43 150 -123 148 -224 l-1 -60
-6 65 c-7 74 -25 111 -73 157 -137 131 -368 79 -436 -98 -12 -30 -21 -47 -21
-39 -1 32 48 117 88 153 85 76 194 93 301 46z m320 11 c6 -11 8 -20 6 -20 -3
0 -10 9 -16 20 -6 11 -8 20 -6 20 3 0 10 -9 16 -20z m-1308 -102 c4 -161 1
-188 -23 -188 -24 0 -26 37 -1 43 13 4 11 5 -5 6 -18 1 -23 -4 -23 -24 0 -20
-5 -25 -24 -25 -13 0 -27 7 -30 16 -8 20 -8 248 0 268 4 12 20 16 54 16 l49 0
3 -112z m945 57 c72 -21 140 -100 157 -180 16 -77 15 -103 -4 -120 -10 -9 -16
-24 -13 -36 19 -71 -83 -137 -145 -93 -22 15 -24 15 -37 -2 -13 -18 -15 -18
-47 -1 -21 11 -51 17 -79 16 -66 -3 -81 6 -119 67 -77 128 -41 279 78 330 80
34 141 39 209 19z m-483 -120 c-4 -8 -8 -15 -10 -15 -2 0 -4 7 -4 15 0 8 4 15
10 15 5 0 7 -7 4 -15z m-394 -100 c0 -25 -7 -39 -27 -55 -16 -12 -35 -36 -43
-53 -12 -26 -22 -33 -50 -35 -39 -3 -84 22 -63 36 9 5 4 16 -17 36 -24 22 -30
36 -30 69 1 37 17 77 32 77 3 0 5 -20 5 -45 0 -46 15 -75 39 -75 8 0 14 -10
14 -22 0 -39 12 -68 26 -68 10 0 14 13 14 43 0 37 4 46 25 55 22 10 25 18 25
69 l1 58 24 -28 c16 -18 25 -40 25 -62z m387 53 c-3 -8 -6 -5 -6 6 -1 11 2 17
5 13 3 -3 4 -12 1 -19z m-500 -140 c-3 -7 -5 -2 -5 12 0 14 2 19 5 13 2 -7 2
-19 0 -25z m1921 -34 c66 -73 -23 -188 -111 -143 -74 38 -75 116 -4 160 40 24
83 17 115 -17z m-1925 -171 c-7 -2 -19 -2 -25 0 -7 3 -2 5 12 5 14 0 19 -2 13
-5z m1027 3 c0 -2 -11 -6 -25 -8 -14 -3 -25 -1 -25 3 0 5 11 9 25 9 14 0 25
-2 25 -4z m-1112 -36 c-7 -10 -14 -17 -17 -15 -4 4 18 35 25 35 2 0 -1 -9 -8
-20z m1239 -37 c-3 -10 -5 -4 -5 12 0 17 2 24 5 18 2 -7 2 -21 0 -30z m-1050
-40 c-3 -10 -5 -4 -5 12 0 17 2 24 5 18 2 -7 2 -21 0 -30z m-216 -115 c-5 -35
-16 -89 -23 -121 -14 -64 -5 -82 38 -71 28 7 39 -10 18 -27 -10 -8 -18 -9 -22
-2 -4 6 -17 13 -29 17 -29 9 -29 21 -1 169 23 121 38 148 19 35z m222 27 c3
-30 13 -86 23 -126 16 -68 13 -106 -9 -97 -5 2 -13 -5 -19 -15 -7 -14 -13 -16
-24 -6 -19 15 -8 29 22 29 35 0 38 19 16 102 -25 92 -36 168 -24 168 5 0 12
-25 15 -55z m845 23 c7 -7 12 -27 12 -45 0 -45 -38 -65 -78 -42 -30 16 -41 61
-21 85 14 17 70 19 87 2z m259 -20 c-3 -8 -6 -5 -6 6 -1 11 2 17 5 13 3 -3 4
-12 1 -19z m-1166 -28 c58 -31 61 -126 6 -161 -69 -43 -157 1 -157 77 0 70 86
118 151 84z m1176 -12 c-3 -8 -6 -5 -6 6 -1 11 2 17 5 13 3 -3 4 -12 1 -19z
m-297 -58 c0 -5 -2 -10 -4 -10 -3 0 -8 5 -11 10 -3 6 -1 10 4 10 6 0 11 -4 11
-10z m53 3 c-7 -2 -21 -2 -30 0 -10 3 -4 5 12 5 17 0 24 -2 18 -5z m892 -22
c7 -12 -12 -24 -25 -16 -11 7 -4 25 10 25 5 0 11 -4 15 -9z m28 -195 c9 -13
11 -28 6 -41 -7 -18 -8 -18 -9 5 l-1 25 -10 -24 c-7 -19 -15 -22 -39 -19 -24
4 -27 2 -19 -9 16 -18 4 -16 -15 3 -20 20 -21 44 -1 44 8 0 15 5 15 11 0 5 -4
7 -10 4 -5 -3 -10 -1 -10 5 0 14 39 28 62 22 9 -2 23 -14 31 -26z m-1598 12
c49 -22 70 -93 39 -136 -43 -62 -123 -57 -158 9 -17 32 -18 40 -6 69 13 31 61
70 87 70 7 0 24 -5 38 -12z m-273 -248 c43 -12 93 -66 103 -109 9 -44 -11 -95
-51 -131 -45 -39 -113 -42 -165 -7 -43 29 -59 60 -59 119 0 69 52 124 130 137
3 1 22 -4 42 -9z m1883 -100 l40 -5 -2 -50 c-1 -28 -2 -60 -2 -72 -1 -20 -6
-23 -40 -23 -22 0 -42 -5 -44 -12 -4 -10 -7 -10 -14 -1 -5 6 -29 13 -53 15
l-45 3 -3 63 c-2 37 2 69 8 77 11 14 86 25 105 15 6 -2 28 -7 50 -10z m-695
-196 c-11 -46 -31 -68 -88 -92 -46 -19 -158 -38 -132 -22 7 4 9 13 6 19 -5 7
2 11 16 12 32 2 36 3 101 23 64 20 73 34 10 17 -45 -13 -176 -14 -153 -2 8 4
47 13 85 20 39 7 90 23 115 36 25 13 46 24 46 25 1 0 -2 -16 -6 -36z"/>
<path d="M140 1762 c0 -4 9 -8 19 -8 11 0 17 4 15 8 -3 4 -12 8 -20 8 -8 0
-14 -4 -14 -8z"/>
<path d="M143 1733 c9 -2 23 -2 30 0 6 3 -1 5 -18 5 -16 0 -22 -2 -12 -5z"/>
<path d="M130 1710 c0 -5 11 -10 25 -10 14 0 25 5 25 10 0 6 -11 10 -25 10
-14 0 -25 -4 -25 -10z"/>
<path d="M143 1683 c9 -2 23 -2 30 0 6 3 -1 5 -18 5 -16 0 -22 -2 -12 -5z"/>
<path d="M135 1660 c-4 -6 5 -10 19 -10 14 0 26 5 26 10 0 6 -9 10 -19 10 -11
0 -23 -4 -26 -10z"/>
<path d="M130 1630 c0 -5 11 -10 25 -10 14 0 25 5 25 10 0 6 -11 10 -25 10
-14 0 -25 -4 -25 -10z"/>
<path d="M175 1560 c-3 -6 1 -7 9 -4 18 7 21 14 7 14 -6 0 -13 -4 -16 -10z"/>
<path d="M1094 1695 c-3 -7 -1 -22 5 -33 8 -15 7 -30 -5 -59 -34 -80 -28 -94
40 -94 31 0 84 49 112 102 13 26 13 27 -11 24 -14 -1 -28 2 -32 8 -3 6 -1 7 5
3 13 -8 17 6 5 17 -9 10 -53 -54 -46 -67 3 -6 2 -8 -2 -3 -5 4 -17 -5 -27 -20
-27 -41 -21 -16 11 50 29 61 29 63 -20 77 -22 7 -31 5 -35 -5z"/>
<path d="M1004 1689 c-3 -6 -1 -15 4 -22 10 -12 15 -40 13 -64 0 -7 -14 -13
-30 -13 -17 0 -32 -4 -35 -9 -9 -14 -46 -20 -53 -8 -3 7 -3 9 2 5 4 -4 20 1
34 11 43 30 55 35 47 23 -4 -7 -3 -12 2 -12 6 0 13 7 16 16 9 23 -20 64 -42
61 -40 -6 -124 -97 -90 -97 7 0 6 -5 -4 -12 -9 -7 -18 -26 -20 -43 -4 -44 32
-46 82 -6 29 23 49 31 79 31 40 0 41 -1 40 -32 -1 -18 -3 -25 -6 -15 -2 9 -9
15 -14 12 -5 -3 -6 2 -2 11 5 15 2 16 -28 10 -19 -3 -40 -14 -46 -23 -7 -9
-13 -13 -13 -8 0 5 -7 0 -15 -12 -8 -12 -28 -23 -43 -25 -21 -2 -26 -8 -24
-23 2 -11 10 -24 18 -28 8 -4 14 -13 14 -18 0 -6 -5 -7 -11 -3 -8 5 -8 1 0
-12 30 -52 41 -59 99 -61 31 -1 72 -8 90 -15 30 -11 35 -11 46 4 11 16 15 16
34 2 28 -19 102 -15 112 6 4 8 11 24 16 35 18 37 6 56 -32 52 -27 -4 -32 -2
-23 9 12 15 2 57 -12 49 -5 -4 -9 -1 -9 5 0 6 -4 8 -10 5 -5 -3 -10 -1 -10 4
0 15 -53 14 -69 -1 -11 -11 -12 -10 -6 1 6 10 4 12 -4 7 -6 -4 -9 -16 -6 -26
3 -10 0 -20 -9 -23 -11 -4 -13 1 -10 23 3 15 0 31 -6 35 -14 9 -13 60 4 99 11
27 11 38 0 64 -7 18 -17 32 -21 33 -4 0 -16 2 -25 4 -10 2 -21 -1 -24 -6z m16
-219 c-6 -10 -15 -22 -22 -26 -7 -5 -8 -3 -3 6 6 10 4 12 -11 6 -15 -6 -15 -3
5 18 26 28 47 25 31 -4z m-36 -58 c2 -4 -4 -9 -15 -9 -11 -1 -17 2 -14 8 7 11
22 12 29 1z m86 -6 c0 -2 -8 -10 -17 -17 -16 -13 -17 -12 -4 4 13 16 21 21 21
13z m95 -33 c-1 -10 5 -27 14 -38 16 -20 16 -20 -6 -2 -17 15 -21 30 -14 55 4
11 9 -2 6 -15z"/>
<path d="M1005 1479 c-4 -6 -5 -12 -2 -15 2 -3 7 2 10 11 7 17 1 20 -8 4z"/>
<path d="M1243 1570 c-12 -10 -19 -20 -16 -24 4 -3 1 -6 -6 -6 -7 0 -9 -4 -6
-10 3 -6 -1 -7 -9 -4 -23 9 -19 -9 5 -24 11 -7 27 -29 35 -48 14 -34 16 -35
37 -21 23 15 28 51 15 113 -9 39 -27 47 -55 24z m17 -39 c7 -15 7 -19 -5 -17
-8 1 -18 6 -22 11 -5 4 -2 5 6 0 11 -6 13 -4 8 8 -9 23 0 21 13 -2z"/>
<path d="M1984 1338 c-3 -4 0 -8 7 -8 9 0 9 -3 0 -14 -14 -17 -5 -24 29 -21
19 1 26 8 28 28 3 23 0 26 -28 25 -17 -1 -33 -5 -36 -10z m51 -18 c3 -5 -1
-10 -9 -10 -9 0 -16 5 -16 10 0 6 4 10 9 10 6 0 13 -4 16 -10z"/>
<path d="M411 656 c-7 -9 -8 -17 -2 -20 5 -3 11 0 14 6 2 7 8 10 12 6 5 -5 1
-16 -8 -26 -10 -10 -17 -22 -17 -25 0 -11 38 -8 45 3 3 6 1 10 -6 10 -8 0 -8
4 1 15 10 12 10 18 0 30 -16 19 -24 19 -39 1z"/>
<path d="M1430 1805 c0 -5 5 -17 10 -25 5 -8 10 -10 10 -5 0 6 -5 17 -10 25
-5 8 -10 11 -10 5z"/>
<path d="M1435 1673 c5 -10 13 -37 19 -60 6 -24 14 -43 17 -43 4 0 3 17 -3 38
-5 20 -10 43 -10 50 -1 6 -5 12 -10 12 -5 0 -6 5 -3 10 3 6 1 10 -5 10 -8 0
-9 -6 -5 -17z"/>
<path d="M644 1662 c3 -6 -2 -13 -11 -15 -16 -4 -16 -5 -1 -6 21 -1 32 15 17
25 -7 4 -9 3 -5 -4z"/>
<path d="M1451 1325 c-1 -15 -3 -17 -10 -7 -7 11 -9 10 -14 -3 -4 -9 -3 -13 3
-10 6 3 10 1 10 -6 0 -10 3 -10 11 -2 6 6 9 19 6 29 -4 17 -5 17 -6 -1z"/>
<path d="M1411 1000 c0 -8 4 -24 9 -35 5 -13 9 -14 9 -5 0 8 -4 24 -9 35 -5
13 -9 14 -9 5z"/>
<path d="M1000 465 l1 -265 34 0 c35 0 35 1 35 44 0 35 -5 47 -24 59 -32 21
-32 65 0 93 13 12 26 37 29 58 6 35 5 36 -27 37 l-33 1 30 7 30 6 -4 85 c-2
68 -7 90 -25 112 -44 56 -46 46 -46 -237z"/>
<path d="M1113 706 c-20 -21 -23 -34 -23 -115 l0 -91 35 0 35 0 0 115 c0 124
-6 135 -47 91z"/>
<path d="M1090 455 c0 -25 8 -44 25 -61 33 -33 32 -65 -5 -97 -23 -20 -30 -36
-30 -62 0 -34 1 -35 40 -35 l40 0 0 145 0 145 -35 0 c-33 0 -35 -2 -35 -35z"/>
</g>
</svg>
